<svg width="123" height="108" viewBox="0 0 123 108" fill="none" xmlns="http://www.w3.org/2000/svg"><path d="M18.4737 93.4378C18.7239 93.1876 18.9741 93.0625 19.2243 93.0625C19.4745 93.0625 19.7545 93.1995 20.0643 93.4735C20.2788 93.6641 20.4098 93.819 20.4575 93.9382C20.517 94.0454 20.5468 94.2241 20.5468 94.4743C20.5468 94.8318 20.4336 95.493 20.2073 96.4581C19.9928 97.4232 19.7903 98.1202 19.5996 98.5491C19.552 98.6682 19.5103 98.7755 19.4745 98.8708C19.4388 98.9661 19.4149 99.0436 19.403 99.1031C19.3911 99.1627 19.3911 99.1925 19.403 99.1925C19.4149 99.1925 19.4209 99.2044 19.4209 99.2282C19.4209 99.395 19.1767 99.7465 18.6882 100.283C18.0924 100.95 17.2167 101.283 16.061 101.283C15.5606 101.283 15.1555 101.224 14.8457 101.105C14.5479 100.974 14.244 100.741 13.9343 100.408C13.5649 100.015 13.3028 99.818 13.1479 99.818C13.0407 99.818 12.9215 99.8716 12.7905 99.9788C12.6713 100.086 12.4807 100.289 12.2186 100.586C11.8135 101.027 11.4739 101.331 11.1999 101.498C10.9378 101.665 10.6518 101.748 10.342 101.748C10.1991 101.748 10.0918 101.742 10.0203 101.73C9.62716 101.671 9.30546 101.54 9.05526 101.337C8.81697 101.135 8.57868 100.801 8.34039 100.336L7.92933 99.532V97.1194C7.94125 95.9994 7.95912 95.2964 7.98295 95.0105C8.01869 94.7126 8.09614 94.4803 8.21528 94.3135C8.44166 94.0156 8.73952 93.8667 9.10887 93.8667C9.41865 93.8667 9.66886 93.962 9.85949 94.1526C9.99055 94.2599 10.068 94.385 10.0918 94.5279C10.1276 94.6709 10.1454 94.9986 10.1454 95.5109V96.744V97.4232C10.1454 98.5312 10.1812 99.121 10.2527 99.1925C10.2646 99.2044 10.2825 99.2104 10.3063 99.2104C10.5088 99.2104 11.1641 98.5014 12.2722 97.0836C12.439 96.8811 12.57 96.75 12.6654 96.6904C12.7726 96.6309 12.9334 96.6011 13.1479 96.6011C13.7675 96.6011 14.2321 96.9406 14.5419 97.6198C14.7325 98.0606 14.9827 98.4121 15.2925 98.6742C15.6142 98.9244 15.9419 99.0495 16.2755 99.0495C16.5852 99.0495 16.8533 98.9363 17.0797 98.7099C17.5205 98.2691 17.7886 97.6793 17.8839 96.9406C17.9435 96.5475 18.015 96.196 18.0984 95.8862C18.158 95.6479 18.1878 95.356 18.1878 95.0105C18.1878 94.8079 18.1818 94.665 18.1699 94.5816C18.1341 94.379 18.1163 94.2182 18.1163 94.099C18.1163 93.8965 18.2354 93.6761 18.4737 93.4378ZM27.116 94.5279C26.9253 94.3611 26.7764 94.2777 26.6692 94.2777C26.5381 94.2777 26.3177 94.4565 26.0079 94.8139C25.7101 95.1594 25.4122 95.5824 25.1143 96.0828C24.8046 96.607 24.6497 96.9823 24.6497 97.2087C24.6497 97.3159 24.6556 97.3993 24.6675 97.4589C24.7509 98.1142 25.1024 98.6146 25.722 98.9602L26.2224 99.2461L27.2589 98.9959C27.9381 98.8291 28.3193 98.6921 28.4027 98.5848C28.6529 98.2751 28.7781 97.7806 28.7781 97.1015C28.7781 96.9228 28.7721 96.7917 28.7602 96.7083C28.7125 96.327 28.6232 96.053 28.4921 95.8862C28.361 95.7075 27.9023 95.2547 27.116 94.5279ZM25.3109 92.4727C25.6088 92.3059 25.9066 92.2225 26.2045 92.2225C26.5977 92.2225 26.9015 92.3416 27.116 92.5799C27.3423 92.8063 27.6402 92.9195 28.0096 92.9195C28.3789 92.9195 28.6708 92.9791 28.8853 93.0982C29.1117 93.2173 29.4036 93.4675 29.761 93.8488C30.1423 94.2658 30.3984 94.6113 30.5295 94.8854C30.6725 95.1475 30.7857 95.5407 30.8691 96.0649C30.9644 96.6606 31.012 97.1015 31.012 97.3874C31.012 97.7925 30.9227 98.2393 30.744 98.7278C30.4699 99.4903 30.1304 100.032 29.7253 100.354C29.3202 100.664 28.5993 100.95 27.5628 101.212C26.9432 101.367 26.5083 101.444 26.2581 101.444C25.8769 101.444 25.3586 101.272 24.7033 100.926C23.9765 100.533 23.4165 100.027 23.0233 99.4069C22.6302 98.7755 22.4336 98.0963 22.4336 97.3696C22.4336 96.7262 22.5944 96.0828 22.9161 95.4394C23.1663 94.939 23.5595 94.3552 24.0956 93.688C24.6318 93.0208 25.0369 92.6157 25.3109 92.4727ZM37.1592 94.4922C36.9686 94.3492 36.7243 94.2777 36.4265 94.2777C36.212 94.2777 36.1048 94.3254 36.1048 94.4207C36.1048 94.5041 36.0154 94.6709 35.8367 94.9211C35.6342 95.1594 35.5329 95.5407 35.5329 96.0649C35.5329 96.2317 35.5627 96.3151 35.6223 96.3151C35.6937 96.3151 35.8903 96.2258 36.212 96.047C36.5456 95.8683 36.8197 95.7015 37.0341 95.5466C37.3082 95.3322 37.4452 95.1296 37.4452 94.939C37.4452 94.7603 37.3499 94.6113 37.1592 94.4922ZM35.2112 92.1152C35.4972 92.0199 35.7891 91.9723 36.0869 91.9723C36.6946 91.9723 37.3022 92.1272 37.9098 92.4369C38.5294 92.7348 38.9941 93.1161 39.3038 93.5807C39.5421 93.9263 39.6613 94.4088 39.6613 95.0284C39.6613 95.493 39.5779 95.8862 39.4111 96.2079C39.2443 96.5177 38.9524 96.8453 38.5354 97.1908L37.9635 97.6555L38.4103 97.87C38.7677 98.0606 39.3098 98.4955 40.0366 99.1746C40.7634 99.8418 41.1506 100.271 41.1983 100.461C41.2221 100.557 41.234 100.634 41.234 100.694C41.234 100.896 41.1863 101.087 41.091 101.266C40.9957 101.444 40.8706 101.575 40.7157 101.659C40.5132 101.766 40.3345 101.82 40.1796 101.82C39.8221 101.82 39.3098 101.51 38.6426 100.89C37.9992 100.295 37.2784 99.7882 36.4801 99.3712C35.8844 99.0733 35.5269 98.9244 35.4078 98.9244C35.2767 98.9244 35.1933 99.0078 35.1576 99.1746C35.1338 99.3414 35.1218 99.681 35.1218 100.193V100.444C35.1218 100.956 35.104 101.289 35.0682 101.444C35.0325 101.599 34.9253 101.766 34.7465 101.945C34.4963 102.195 34.2402 102.32 33.978 102.32C33.7398 102.32 33.5134 102.213 33.2989 101.998C33.0249 101.724 32.8879 101.242 32.8879 100.551C32.8879 100.062 32.9534 99.2401 33.0845 98.0844C33.2632 96.6428 33.3644 95.5288 33.3883 94.7424C33.4121 94.0514 33.4479 93.6284 33.4955 93.4735C33.5432 93.2948 33.7576 93.0565 34.1389 92.7586C34.5202 92.4608 34.8776 92.2463 35.2112 92.1152ZM43.6493 91.0787C43.8519 90.9357 44.0425 90.8642 44.2212 90.8642C44.4595 90.8642 44.6919 90.9774 44.9182 91.2038C45.0731 91.3587 45.1685 91.5136 45.2042 91.6685C45.2399 91.8114 45.2578 92.1331 45.2578 92.6335C45.2578 93.3603 45.3174 93.7237 45.4365 93.7237C45.6152 93.7237 46.1395 93.5092 47.0092 93.0803C47.8909 92.6395 48.445 92.3178 48.6713 92.1152C49.0764 91.7816 49.41 91.6148 49.6721 91.6148C49.7794 91.6148 49.9045 91.6446 50.0475 91.7042C50.4764 91.9425 50.6908 92.2404 50.6908 92.5978C50.6908 92.9076 50.5419 93.2293 50.244 93.5629C49.8985 93.9203 49.2373 94.3373 48.2603 94.8139C47.3548 95.2547 46.902 95.5407 46.902 95.6717C46.902 95.6956 46.9139 95.7194 46.9378 95.7432C47.045 95.8505 47.6645 96.1185 48.7964 96.5475C49.9402 96.9645 50.7802 97.2325 51.3164 97.3517C51.8644 97.4827 52.3172 97.5483 52.6746 97.5483C53.032 97.5483 53.312 97.6496 53.5146 97.8521C53.729 98.0427 53.8363 98.2929 53.8363 98.6027C53.8363 98.9721 53.7231 99.2282 53.4967 99.3712C53.2823 99.5142 52.895 99.5857 52.335 99.5857C51.7036 99.5857 50.7385 99.3772 49.4398 98.9602C47.9624 98.4717 47.0569 98.1559 46.7233 98.0129C46.211 97.7985 45.9072 97.6913 45.8118 97.6913C45.7761 97.6913 45.7582 97.721 45.7582 97.7806C45.7582 97.8998 45.794 98.0546 45.8655 98.2453C45.9965 98.5908 46.062 98.9125 46.062 99.2104C46.062 99.5678 45.931 99.8835 45.6689 100.158C45.4306 100.396 45.228 100.515 45.0612 100.515C45.0255 100.515 44.9599 100.503 44.8646 100.479C44.3285 100.336 44.0187 100.003 43.9353 99.4784C43.8996 99.1806 43.7864 98.7397 43.5957 98.1559C43.4051 97.5364 43.274 96.3628 43.2026 94.6352C43.1787 94.1348 43.1668 93.4616 43.1668 92.6157C43.1668 91.9842 43.1787 91.6446 43.2026 91.597C43.286 91.3944 43.4349 91.2217 43.6493 91.0787ZM70.7452 93.4378C70.9954 93.1876 71.2457 93.0625 71.4959 93.0625C71.7461 93.0625 72.0261 93.1995 72.3358 93.4735C72.5503 93.6641 72.6814 93.819 72.729 93.9382C72.7886 94.0454 72.8184 94.2241 72.8184 94.4743C72.8184 94.8318 72.7052 95.493 72.4788 96.4581C72.2643 97.4232 72.0618 98.1202 71.8712 98.5491C71.8235 98.6682 71.7818 98.7755 71.7461 98.8708C71.7103 98.9661 71.6865 99.0436 71.6746 99.1031C71.6627 99.1627 71.6627 99.1925 71.6746 99.1925C71.6865 99.1925 71.6924 99.2044 71.6924 99.2282C71.6924 99.395 71.4482 99.7465 70.9597 100.283C70.364 100.95 69.4883 101.283 68.3325 101.283C67.8321 101.283 67.427 101.224 67.1173 101.105C66.8194 100.974 66.5156 100.741 66.2058 100.408C65.8365 100.015 65.5743 99.818 65.4194 99.818C65.3122 99.818 65.1931 99.8716 65.062 99.9788C64.9429 100.086 64.7522 100.289 64.4901 100.586C64.085 101.027 63.7455 101.331 63.4714 101.498C63.2093 101.665 62.9233 101.748 62.6136 101.748C62.4706 101.748 62.3634 101.742 62.2919 101.73C61.8987 101.671 61.577 101.54 61.3268 101.337C61.0885 101.135 60.8502 100.801 60.6119 100.336L60.2009 99.532V97.1194C60.2128 95.9994 60.2307 95.2964 60.2545 95.0105C60.2902 94.7126 60.3677 94.4803 60.4868 94.3135C60.7132 94.0156 61.0111 93.8667 61.3804 93.8667C61.6902 93.8667 61.9404 93.962 62.131 94.1526C62.2621 94.2599 62.3395 94.385 62.3634 94.5279C62.3991 94.6709 62.417 94.9986 62.417 95.5109V96.744V97.4232C62.417 98.5312 62.4527 99.121 62.5242 99.1925C62.5361 99.2044 62.554 99.2104 62.5778 99.2104C62.7804 99.2104 63.4357 98.5014 64.5437 97.0836C64.7105 96.8811 64.8416 96.75 64.9369 96.6904C65.0441 96.6309 65.205 96.6011 65.4194 96.6011C66.039 96.6011 66.5037 96.9406 66.8134 97.6198C67.0041 98.0606 67.2543 98.4121 67.5641 98.6742C67.8858 98.9244 68.2134 99.0495 68.547 99.0495C68.8568 99.0495 69.1249 98.9363 69.3512 98.7099C69.7921 98.2691 70.0602 97.6793 70.1555 96.9406C70.215 96.5475 70.2865 96.196 70.3699 95.8862C70.4295 95.6479 70.4593 95.356 70.4593 95.0105C70.4593 94.8079 70.4533 94.665 70.4414 94.5816C70.4057 94.379 70.3878 94.2182 70.3878 94.099C70.3878 93.8965 70.507 93.6761 70.7452 93.4378ZM75.6166 93.2233C75.8549 93.0208 76.0872 92.9195 76.3136 92.9195C76.5399 92.9195 76.7663 93.0327 76.9927 93.259C77.1476 93.4139 77.2429 93.5807 77.2786 93.7595C77.3144 93.9263 77.3323 94.3373 77.3323 94.9926C77.3323 95.7194 77.3978 96.6606 77.5288 97.8164C77.6003 98.3763 77.6361 98.7874 77.6361 99.0495C77.6361 99.2878 77.6122 99.4486 77.5646 99.532C77.3501 99.9371 77.0403 100.14 76.6353 100.14C76.397 100.14 76.1765 100.056 75.974 99.8895C75.7834 99.7227 75.6523 99.4963 75.5808 99.2104C75.4974 98.8767 75.4021 98.1857 75.2949 97.1372C75.1996 96.0887 75.1519 95.2666 75.1519 94.6709C75.1519 94.6233 75.1519 94.5577 75.1519 94.4743C75.1638 94.3909 75.1698 94.3373 75.1698 94.3135C75.1936 94.0037 75.2353 93.7773 75.2949 93.6344C75.3544 93.4914 75.4617 93.3544 75.6166 93.2233ZM75.0804 88.3622C75.2949 88.1239 75.5332 88.0047 75.7953 88.0047C76.0693 88.0047 76.3314 88.1477 76.5816 88.4337C76.7842 88.6719 76.8855 88.8745 76.8855 89.0413C76.8855 89.1247 76.8676 89.2498 76.8318 89.4166C76.6889 90.2745 76.3553 90.7034 75.831 90.7034C75.7834 90.7034 75.688 90.6915 75.5451 90.6676C75.0089 90.5485 74.7408 90.1076 74.7408 89.3451C74.7408 88.9519 74.854 88.6243 75.0804 88.3622ZM84.8305 93.0803C86.2959 92.985 87.1478 92.9314 87.3861 92.9195H87.4397C87.7019 92.9195 87.9699 93.0505 88.244 93.3127C88.4942 93.5629 88.6193 93.7892 88.6193 93.9918C88.6193 94.1109 88.5835 94.2718 88.512 94.4743C88.4167 94.7484 88.2201 94.933 87.9223 95.0284C87.6363 95.1118 87.0585 95.1773 86.1887 95.2249L84.616 95.2964L84.5445 96.9943C84.5326 97.2325 84.5266 97.5781 84.5266 98.0308C84.5266 98.9721 84.6041 99.9491 84.759 100.962C84.7828 101.105 84.7947 101.2 84.7947 101.248C84.7947 101.415 84.6696 101.605 84.4194 101.82C84.1573 102.046 83.9071 102.159 83.6688 102.159C83.4067 102.159 83.1326 102.016 82.8467 101.73C82.6441 101.528 82.5131 101.343 82.4535 101.176C82.3939 100.998 82.3403 100.628 82.2927 100.068C82.245 99.4248 82.2212 98.7457 82.2212 98.0308C82.2212 97.6496 82.2271 97.3755 82.239 97.2087L82.2927 95.5645L81.7565 95.5288C80.8867 95.4811 80.291 95.3798 79.9693 95.2249C79.6595 95.0581 79.5047 94.7841 79.5047 94.4028C79.5047 93.9501 79.6357 93.6224 79.8978 93.4199C80.16 93.2173 80.5889 93.1161 81.1846 93.1161C81.3872 93.1161 81.542 93.122 81.6493 93.1339C81.7803 93.1459 82.0544 93.1518 82.4714 93.1518C83.365 93.1518 84.1513 93.128 84.8305 93.0803ZM90.8741 89.1843C91.0766 88.946 91.3209 88.8268 91.6068 88.8268C91.8928 88.8268 92.1549 88.946 92.3932 89.1843L92.7327 89.5238C92.7089 89.917 92.6791 90.5127 92.6434 91.311C92.6076 92.0974 92.5778 92.6871 92.554 93.0803L94.1625 92.9731C95.2467 92.9135 95.7948 92.8718 95.8067 92.848C95.8305 92.8361 95.8782 92.2701 95.9497 91.1502C95.9973 90.3281 96.039 89.8336 96.0748 89.6668C96.1105 89.4881 96.2237 89.3213 96.4143 89.1664C96.6645 88.9519 96.9147 88.8447 97.1649 88.8447C97.4032 88.8447 97.6356 88.9579 97.8619 89.1843C98.0645 89.3868 98.1658 89.5953 98.1658 89.8098C98.1658 89.8336 98.1419 90.1076 98.0943 90.6319C98.0466 91.18 97.999 92.7825 97.9513 95.4394C97.9275 97.2504 97.9036 98.3287 97.8798 98.6742C97.856 99.0078 97.7726 99.2342 97.6296 99.3533C97.4509 99.5082 97.2483 99.5857 97.022 99.5857C96.1522 99.5857 95.7173 98.5312 95.7173 96.4224V95.0998H94.7344C94.1148 95.0998 93.6025 95.1356 93.1974 95.2071C92.8042 95.2786 92.6076 95.4454 92.6076 95.7075C92.6076 95.91 92.691 96.1602 92.8578 96.4581C93.0127 96.7321 93.0902 97.0062 93.0902 97.2802C93.0902 97.3517 93.0782 97.5066 93.0544 97.7449C92.9234 98.6146 92.6255 99.1329 92.1608 99.2997C91.9821 99.3593 91.8272 99.3891 91.6962 99.3891C91.0885 99.3891 90.7251 98.7099 90.606 97.3517C90.5345 96.7798 90.4988 94.7841 90.4988 91.3646C90.4988 90.4353 90.5047 89.8991 90.5166 89.7562C90.5166 89.6132 90.6358 89.4226 90.8741 89.1843ZM111.86 93.9024C112.051 93.6999 112.295 93.5986 112.593 93.5986C112.915 93.5986 113.183 93.7118 113.397 93.9382C113.552 94.0931 113.648 94.2539 113.683 94.4207C113.719 94.5756 113.737 94.939 113.737 95.5109C113.737 97.31 113.386 98.8648 112.683 100.175C112.325 100.843 112.003 101.331 111.717 101.641C111.443 101.939 111.092 102.195 110.663 102.409C110.246 102.624 109.889 102.731 109.591 102.731C109.507 102.731 109.346 102.719 109.108 102.695C108.381 102.636 107.726 102.421 107.142 102.052C106.558 101.683 106.112 101.206 105.802 100.622C105.576 100.193 105.361 99.6572 105.159 99.0138C104.968 98.3585 104.849 97.8223 104.801 97.4053C104.765 96.9406 104.688 96.4343 104.569 95.8862C104.521 95.6479 104.497 95.4394 104.497 95.2607C104.497 95.0939 104.551 94.9271 104.658 94.7603C104.908 94.3671 105.212 94.1705 105.57 94.1705C105.629 94.1705 105.718 94.1824 105.838 94.2063C106.398 94.3373 106.737 94.9033 106.856 95.9041C106.975 96.9526 107.16 97.864 107.41 98.6385C107.661 99.4129 107.929 99.8954 108.215 100.086C108.596 100.336 108.935 100.461 109.233 100.461C109.71 100.461 110.151 100.116 110.556 99.4248C111.104 98.5074 111.42 97.2445 111.503 95.636C111.527 95.0284 111.563 94.6173 111.61 94.4028C111.658 94.1884 111.741 94.0216 111.86 93.9024ZM118.885 92.7944C119.159 92.5918 119.523 92.4906 119.976 92.4906C120.381 92.4906 120.756 92.574 121.101 92.7408C121.459 92.9076 121.691 93.128 121.798 93.402C121.882 93.6284 121.924 93.7833 121.924 93.8667C121.924 94.0335 121.81 94.236 121.584 94.4743C121.381 94.7007 121.066 94.8139 120.637 94.8139C120.363 94.8139 120.19 94.8318 120.118 94.8675C120.059 94.9033 120.017 94.9867 119.993 95.1177V95.3679C119.993 95.8564 120.107 96.47 120.333 97.2087C120.524 97.8283 120.619 98.5134 120.619 99.264C120.619 99.9788 120.524 100.521 120.333 100.89C119.844 101.82 119.088 102.284 118.063 102.284C117.849 102.284 117.688 102.278 117.581 102.266C116.568 102.159 115.972 101.879 115.793 101.426C115.71 101.2 115.668 101.039 115.668 100.944C115.668 100.789 115.776 100.581 115.99 100.318C116.157 100.14 116.306 100.032 116.437 99.9967C116.568 99.9491 116.86 99.9252 117.313 99.9252H118.313L118.349 99.3533V99.2282C118.349 98.835 118.266 98.3346 118.099 97.727C117.885 96.9764 117.777 96.2138 117.777 95.4394V95.1177C117.777 94.7245 117.801 94.4445 117.849 94.2777C117.896 94.099 117.992 93.8905 118.135 93.6522C118.385 93.2471 118.635 92.9612 118.885 92.7944Z" fill="#FF685D"></path><path d="M45.8814 38.1751C46.706 38.3611 47.5414 38.386 48.2184 38.731C49.2485 39.2558 49.6882 40.037 49.005 42.0031C48.4128 43.707 47.5464 45.2833 46.2701 46.5805C45.3965 47.4685 43.3229 48.4229 41.8532 47.4634C41.49 47.2262 41.3547 47.389 41.4377 47.8088C41.6637 48.9523 41.7103 50.1654 42.131 51.2273C42.5897 52.3848 43.3694 53.4164 44.0539 54.4731C44.2229 54.734 44.5653 54.8796 44.8281 55.0781C44.9652 54.8109 45.1683 54.5579 45.2289 54.2739C45.7177 51.9817 47.006 50.265 48.9864 49.1445C49.9728 48.5865 51.101 48.7275 52.0081 49.4336C52.2615 49.6308 52.3668 50.3102 52.2468 50.6668C51.6788 52.3555 50.9065 53.9296 49.7132 55.2982C48.69 56.4718 47.564 56.9755 46.0645 56.5072C45.9759 56.4795 45.8727 56.4994 45.7762 56.4971C45.8135 56.7158 45.7984 56.9631 45.8969 57.1482C46.3541 58.0078 46.6797 58.9217 47.4084 59.6503C48.4262 60.6679 49.3047 61.821 50.6206 62.4971C51.1927 62.7909 51.307 62.7506 51.4107 62.1256C51.7504 60.0761 52.423 58.159 53.7336 56.5261C54.4306 55.6575 55.4242 55.5559 56.4839 56.196C58.2256 57.248 58.2893 57.615 57.8103 59.6812C57.4428 61.2667 56.5105 62.4483 55.4549 63.5217C54.631 64.3593 53.4586 64.4121 52.3417 64.1722C51.8304 64.0623 51.7997 64.1704 51.9362 64.6177C52.1563 65.3396 52.288 66.091 52.5337 66.8027C52.7848 67.5309 53.274 68.061 53.9959 68.3981C55.0075 68.8703 55.9797 69.4284 56.9798 69.927C57.7694 70.3208 58.627 70.0926 59.1826 69.3298C59.67 68.6607 60.0894 67.9397 60.5903 67.2819C60.8061 66.9985 61.1238 66.7203 61.4484 66.6241C61.6529 66.5634 62.1597 66.8145 62.183 66.977C62.4182 68.6197 62.5651 70.2753 62.7701 71.923C62.9421 73.3056 63.026 74.6758 62.6167 76.0344C62.3281 76.9927 61.9697 77.1643 61.1027 76.6903C60.3242 76.2645 59.574 75.7845 58.7884 75.3735C57.6948 74.8014 56.5732 74.2842 55.4807 73.7102C55.3039 73.6174 55.0887 73.3276 55.1179 73.1733C55.1526 72.9915 55.4268 72.8488 55.6107 72.7068C55.7266 72.6173 55.8903 72.5847 55.9923 72.4843C56.3461 72.1363 56.6822 71.7698 57.0252 71.4102C56.6315 71.1143 56.2784 70.6924 55.8367 70.5456C54.4506 70.0848 53.2262 69.3114 52.3154 68.2339C51.708 67.5152 51.3438 66.4561 51.1962 65.4978C51.0058 64.2626 50.5253 63.4182 49.4078 62.9048C48.0948 62.3015 47.3314 61.093 46.4306 60.0355C45.6159 59.0788 45.0349 58.0285 44.8406 56.7561C44.8004 56.4933 44.5117 56.2138 44.2679 56.0472C42.4333 54.793 41.6486 52.8825 40.9891 50.8596C40.5 49.359 40.6667 47.831 40.5764 46.3063C40.4965 44.959 40.0184 43.6393 39.8938 42.2906C39.5949 39.0591 40.519 36.0897 42.2529 33.4357C43.3934 31.6898 44.792 30.1128 46.1295 28.5071C46.6069 27.934 47.2085 27.4424 47.828 27.0286C48.0754 26.8633 48.5247 27.0037 48.8802 27.0301C48.8956 27.0312 48.9454 27.3751 48.8915 27.4071C46.8617 28.6118 45.3537 30.4079 43.9968 32.2608C42.916 33.7365 42.2176 35.5098 41.4132 37.1827C40.4706 39.1428 40.847 41.2626 40.828 43.3278C40.8257 43.5664 41.0277 43.807 41.1348 44.0468C41.1896 43.8491 41.2277 43.6446 41.3015 43.4546C42.0553 41.5139 43.0438 39.7372 44.7977 38.5366C45.0901 38.3365 45.4777 38.2801 45.8814 38.1751ZM44.3155 46.5839C44.7678 46.3724 45.3108 46.2592 45.6556 45.9314C46.8041 44.8396 47.5543 43.4513 48.0927 41.9708C48.2865 41.4379 48.3449 40.7668 48.2168 40.2185C47.9184 38.9419 45.6912 38.5747 44.6058 39.7135C43.2014 41.187 42.1958 42.9383 41.5613 44.8865C41.4598 45.1981 41.5297 45.6344 41.6674 45.9463C42.0466 46.8051 42.9683 47.0454 44.3155 46.5839ZM56.3576 61.0074C56.5661 60.4324 56.8109 59.868 56.9759 59.2803C57.3344 58.004 56.8843 57.1839 55.6046 56.8303C55.2813 56.7409 54.759 56.7224 54.5756 56.9147C54.1069 57.4055 53.6766 57.99 53.4152 58.6163C52.9767 59.6681 52.6616 60.7753 52.3344 61.8716C52.1899 62.3554 51.7974 62.9013 52.32 63.3311C52.3963 63.3938 52.9453 62.8306 53.3004 62.5958C53.4332 62.5082 53.6395 62.5026 53.8077 62.5166C53.888 62.5231 53.9919 62.6501 54.025 62.7444C54.0822 62.907 54.0924 63.0866 54.1224 63.2589C54.2909 63.1531 54.4875 63.0753 54.6229 62.9363C55.1994 62.3439 55.7576 61.7334 56.3576 61.0074ZM46.2222 54.0342C46.1234 54.3784 45.9813 54.7179 45.9446 55.0687C45.9266 55.2399 46.0714 55.5587 46.2008 55.5946C46.9743 55.8091 47.8938 56.0235 48.4281 55.3207C49.4597 53.964 50.3592 52.4978 51.2396 51.0314C51.5786 50.4668 51.2186 49.8495 50.5433 49.7753C50.127 49.7296 49.6185 49.7931 49.2695 50.0065C47.789 50.9117 46.6636 52.1361 46.2222 54.0342ZM60.3311 74.8963C60.509 74.8824 60.687 74.8686 60.865 74.8549C60.6372 74.6333 60.4218 74.3958 60.1755 74.1978C60.0781 74.1194 59.912 74.1289 59.7771 74.0985C59.9334 74.3117 60.0896 74.5252 60.3311 74.8963Z" fill="#FF685D"></path></svg>