<svg xmlns="http://www.w3.org/2000/svg" width="166" height="166" fill="none"><path fill="#3C3C3C" fill-opacity=".75" d="m163.252 102.261.567-.262-.376-.812-.633.632.442.442Zm.733 3.329h-.625.625Zm0 12.967.442.442.183-.183v-.259h-.625Zm-12.911 12.905v.625h.259l.183-.183-.442-.442Zm-4.1 0v-.625.625Zm-17.013 16.704-.625-.005v.005h.625Zm0 4.397.442.442.183-.183v-.259h-.625Zm-12.444 12.439v.625h.258l.183-.183-.441-.442Zm-13.645 0v.625-.625Zm-2.86-.534-.442-.443-.68.679.896.346.226-.582Zm-35.581-32.552.236-.579-.385-.157-.293.294.442.442Zm4.937 7.344h.625v-.001l-.625.001Zm0 4.75.442.442.183-.184v-.258h-.625Zm-21 20.99v.625h.258l.183-.183-.442-.442Zm-5.088 0v.625V165Zm-7.248-4.701-.442-.442-.304.304.176.393.57-.255Zm58.904-7.787h-.625v1.509l1.067-1.067-.442-.442Zm0-13.252h-.625.625Zm7.936-7.93v-.625.625Zm9.077 0v.625-.625Zm4.888-.707.442.442-.62-1.041.178.599Zm-78.54-6.646.514-.355-.426-.617-.53.53.442.442Zm10.135 6.9.441.442.796-.795-1.095-.256-.142.609Zm-13.543 13.535-.608.145.26 1.087.79-.79-.442-.442Zm-6.993-10.04-.441-.442-.537.536.63.424.349-.518Zm2.193-36.25.21-.588-.372-.133-.28.28.442.442Zm5.256 7.468h-.625.625Zm0 4.309.441.442.184-.183v-.259h-.625ZM14.773 131.46v.625h.258l.183-.183-.441-.442Zm-4.517 0v.625-.625Zm-7.415-5.105-.442-.442-.287.287.145.378.584-.223Zm126.456-7.186-.6-.175 1.042.617-.442-.442Zm.664-4.543.625.004v-.004h-.625Zm0-9.036h-.625.625Zm7.935-7.932v-.625.625Zm12.924 0 .442.442 1.068-1.067h-1.51v.625ZM2.32 109.847h-.625v1.509l1.067-1.067-.442-.442Zm0-4.257h-.625.625Zm7.936-7.932v-.625.625Zm4.26 0 .442.442 1.068-1.067h-1.51v.625ZM158.51 38.886l.193-.594-.364-.118-.271.27.442.442Zm5.476 7.541h.625-.625Zm0 4.015.442.442.183-.183v-.259h-.625ZM142.116 72.3v.625h.259l.183-.183-.442-.442Zm-4.22 0v.625-.625Zm-7.494-5.322-.441-.442-.278.278.129.37.59-.206Zm-94.057-2.611h-.625.625Zm-7.936 7.932v.625-.625Zm-5.556 0-.442-.443-1.068 1.068h1.51v-.625Zm13.492-13.486h.625v-1.508l-1.067 1.066.442.442ZM62.434 4.957v-.625.625Zm6.84 3.914.442.442.343-.342-.246-.417-.539.317ZM6.67 71.442 6.387 72l.404.204.32-.32-.441-.442Zm-4.35-7.075h-.625.625Zm0-5.606-.442-.442-.183.183v.26h.625Zm20.667-20.656-.132-.61-.18.038-.13.13.442.442Zm12.997-12.99-.441-.442-.132.131-.038.182.611.129Zm20.17-20.158v-.625h-.259l-.183.183.442.442ZM162.57 68.885l.514.356-.956-.798.442.442Zm-2.003 2.002-.442-.442.799.956-.357-.513Zm-27.945-40.185.525-.339-.419-.65-.548.547.442.442Zm9.839 7.194.442.442.763-.762-1.041-.283-.164.603Zm-13.106 13.1-.602.167.286 1.032.758-.757-.442-.442Zm-7.286-9.747-.441-.442-.555.553.663.418.333-.53Zm1.976-36.032.158-.605-.346-.091-.254.253.442.443Zm5.916 7.67h.625-.625Zm0 3.446.442.442.183-.183v-.26h-.625Zm-22.307 22.296v.625h.259l.183-.183-.442-.442Zm-3.782 0v.625-.625Zm-7.602-5.654-.441-.442-.264.264.107.358.599-.18Zm-25.902-2.279h.625-.625Zm-7.934 7.933v.625-.625Zm-5.894 0-.442-.442-1.067 1.067h1.509v-.625Zm13.828-13.82h.625V23.3l-1.067 1.066.442.442Zm25.569-8.527h-.626v1.508l1.067-1.066-.442-.442Zm0-3.395h-.626.625Zm7.935-7.93v-.625.625Zm3.397 0 .441.442 1.068-1.067h-1.509v.625Zm55.983 97.304-.567.263c.432.933.675 1.97.675 3.066h1.25a8.519 8.519 0 0 0-.791-3.591l-.567.262Zm.733 3.329h-.625v12.967h1.25V105.59h-.625Zm0 12.967-.441-.442-12.912 12.905.442.442.442.442 12.911-12.905-.442-.442Zm-12.911 12.905v-.625h-4.1v1.25h4.1v-.625Zm-4.1 0v-.625c-9.688 0-17.562 7.739-17.638 17.324l.625.005.625.005c.071-8.887 7.375-16.084 16.388-16.084v-.625Zm-17.013 16.704h-.625v4.397h1.25v-4.397h-.625Zm0 4.397-.442-.442-12.444 12.439.442.442.441.442 12.445-12.439-.442-.442Zm-12.444 12.439v-.625h-13.645v1.25h13.645v-.625Zm-13.645 0v-.625a7.296 7.296 0 0 1-2.635-.492l-.225.583-.226.582a8.526 8.526 0 0 0 3.086.577v-.625Zm-2.86-.534.442.442 62.24-62.206-.442-.443-.442-.442-62.24 62.206.442.443Zm-35.581-32.552-.236.578a7.309 7.309 0 0 1 4.548 6.766h.625l.625-.001a8.558 8.558 0 0 0-5.326-7.922l-.236.579Zm4.937 7.344h-.625v4.75h1.25v-4.75h-.625Zm0 4.75-.442-.443-21 20.991.441.442.442.442 21.001-20.99-.442-.442Zm-21 20.99v-.625H44.28v1.25h5.087V165Zm-5.088 0v-.625a7.311 7.311 0 0 1-6.677-4.331l-.57.255-.571.255a8.562 8.562 0 0 0 7.818 5.071V165Zm-7.248-4.701.442.442 28.399-28.383-.442-.442-.442-.442-28.399 28.383.442.442Zm58.904-7.787h.625V139.26h-1.25v13.252h.625Zm0-13.252.625.001a7.308 7.308 0 0 1 7.311-7.306v-1.25c-4.727 0-8.56 3.83-8.56 8.555h.624Zm7.936-7.93v.625h9.077v-1.25h-9.077v.625Zm9.077 0v.625c1.76 0 3.461-.258 5.065-.733l-.177-.599-.178-.599a16.584 16.584 0 0 1-4.71.681v.625Zm4.888-.707-.442-.442-21.9 21.889.441.442.442.442 21.901-21.889-.442-.442Zm-78.54-6.646-.514.355a17.654 17.654 0 0 0 10.506 7.153l.143-.608.142-.609a16.41 16.41 0 0 1-9.763-6.646l-.514.355Zm10.135 6.9-.442-.442-13.543 13.535.442.442.441.442 13.544-13.535-.442-.442Zm-13.543 13.535.608-.145c-1.03-4.309-3.669-7.998-7.251-10.413l-.35.518-.349.518c3.331 2.246 5.78 5.673 6.734 9.667l.608-.145Zm-6.993-10.04.442.442 10.4-10.395-.441-.442-.442-.442-10.4 10.395.442.442Zm2.193-36.25-.211.59a7.31 7.31 0 0 1 4.842 6.878h1.25a8.56 8.56 0 0 0-5.67-8.056l-.211.589Zm5.256 7.468h-.625v4.309h1.25v-4.309h-.625Zm0 4.309-.442-.442-21.572 21.561.442.442.441.442 21.572-21.561-.441-.442ZM14.773 131.46v-.625h-4.517v1.25h4.517v-.625Zm-4.517 0v-.625a7.314 7.314 0 0 1-6.831-4.703l-.584.223-.584.223a8.564 8.564 0 0 0 7.999 5.507v-.625Zm-7.415-5.105.442.442L31.53 98.565l-.442-.442-.442-.442-28.248 28.232.442.442Zm126.456-7.186.6.174c.436-1.498.677-3.079.689-4.713l-.625-.004-.625-.005a16.023 16.023 0 0 1-.639 4.373l.6.175Zm.664-4.543h.625v-9.036h-1.25v9.036h.625Zm0-9.036h.625a7.309 7.309 0 0 1 7.31-7.307v-1.25a8.559 8.559 0 0 0-8.56 8.557h.625Zm7.935-7.932v.625h12.924v-1.25h-12.924v.625Zm12.924 0-.442-.442-21.523 21.511.442.442.442.442L151.262 98.1l-.442-.442ZM2.32 109.847h.625v-4.257h-1.25v4.257h.625Zm0-4.257h.625a7.31 7.31 0 0 1 7.31-7.307v-1.25c-4.726 0-8.56 3.831-8.56 8.557h.625Zm7.936-7.932v.625h4.26v-1.25h-4.26v.625Zm4.26 0-.441-.442-12.197 12.189.442.442.442.442L14.958 98.1l-.441-.442ZM158.51 38.886l-.194.595a7.308 7.308 0 0 1 5.045 6.947h1.25c0-3.802-2.48-7.02-5.908-8.136l-.193.594Zm5.476 7.541h-.625v4.015h1.25v-4.014h-.625Zm0 4.015-.441-.442-21.87 21.858.442.442.442.442 21.869-21.858-.442-.442ZM142.116 72.3v-.625h-4.22v1.25h4.22V72.3Zm-4.22 0v-.625a7.311 7.311 0 0 1-6.903-4.903l-.591.206-.59.206a8.563 8.563 0 0 0 8.084 5.74V72.3Zm-7.494-5.322.442.442 28.107-28.092-.442-.442-.442-.442-28.106 28.092.441.442Zm-94.057-2.611h-.625a7.309 7.309 0 0 1-7.31 7.307v1.25a8.559 8.559 0 0 0 8.56-8.557h-.625Zm-7.936 7.932v-.625h-5.556v1.25h5.556v-.625Zm-5.556 0 .441.442 13.493-13.486-.442-.442-.442-.442L22.41 71.856l.441.443Zm13.492-13.486h-.625v5.554h1.25v-5.554h-.625ZM62.434 4.957v.625a7.305 7.305 0 0 1 6.302 3.606l.538-.317.539-.317a8.555 8.555 0 0 0-7.38-4.222v.625Zm6.84 3.914-.441-.442L6.228 71l.442.442.442.442L69.716 9.313l-.442-.442ZM6.67 71.442l.283-.557a7.305 7.305 0 0 1-4.008-6.518h-1.25a8.554 8.554 0 0 0 4.692 7.632l.283-.557Zm-4.35-7.075h.625V58.76h-1.25v5.606h.625Zm0-5.606.442.442L23.43 38.547l-.442-.442-.441-.442L1.878 58.32l.442.442Zm20.667-20.656.133.611c6.752-1.464 12.06-6.757 13.476-13.472l-.612-.129-.611-.129c-1.314 6.226-6.24 11.148-12.518 12.508l.132.611Zm12.997-12.99.442.442L56.596 5.4l-.442-.442-.442-.442-20.17 20.158.442.442Zm20.17-20.158v.625h6.28v-1.25h-6.28v.625ZM162.57 68.885l-.513-.357a7.345 7.345 0 0 1-1.846 1.846l.356.514.357.513a8.606 8.606 0 0 0 2.16-2.16l-.514-.356Zm-2.003 2.002.442.442 2.003-2.002-.442-.442-.442-.442-2.003 2.002.442.443Zm-27.945-40.185-.525.339a17.66 17.66 0 0 0 10.2 7.458l.164-.603.164-.603a16.412 16.412 0 0 1-9.478-6.93l-.525.339Zm9.839 7.194-.442-.442-13.105 13.1.441.442.442.442 13.106-13.1-.442-.442Zm-13.106 13.1.603-.167c-1.173-4.23-3.91-7.815-7.556-10.11l-.333.53-.333.529c3.39 2.133 5.93 5.463 7.017 9.385l.602-.167Zm-7.286-9.747.442.442 10.553-10.547-.442-.442-.442-.442-10.552 10.547.441.442Zm1.976-36.032-.159.604a7.31 7.31 0 0 1 5.45 7.066h1.25c0-3.974-2.71-7.312-6.383-8.275l-.158.605Zm5.916 7.67h-.625v3.446h1.25v-3.445h-.625Zm0 3.446-.442-.442-22.307 22.296.442.442.442.442 22.307-22.296-.442-.442Zm-22.307 22.296v-.625h-3.782v1.25h3.782v-.625Zm-3.782 0v-.625a7.313 7.313 0 0 1-7.003-5.208l-.599.18-.598.179a8.563 8.563 0 0 0 8.2 6.099v-.625Zm-7.602-5.654.442.442L124.487 5.66l-.442-.442-.442-.443-27.774 27.76.442.441Zm-25.902-2.279h-.625a7.31 7.31 0 0 1-7.31 7.308v1.25a8.56 8.56 0 0 0 8.56-8.558h-.625Zm-7.934 7.933v-.625H56.54v1.25h5.894v-.625Zm-5.894 0 .442.442L70.81 25.25l-.442-.443-.442-.442-13.828 13.82.442.443Zm13.828-13.82h-.625v5.887h1.25v-5.888h-.625Zm25.569-8.527h.624v-3.395h-1.25v3.395h.625Zm0-3.395h.624a7.309 7.309 0 0 1 7.311-7.305v-1.25c-4.727 0-8.56 3.83-8.56 8.555h.624Zm7.935-7.93v.625h3.397v-1.25h-3.397v.625Zm3.397 0-.442-.442L95.495 15.84l.441.442.442.442L107.71 5.4l-.441-.442Z"/><path stroke="#3C3C3C" stroke-linejoin="round" stroke-width="1.25" d="M156.048 97.624c4.392 0 7.952 3.548 7.952 7.925v17.926c0 4.376-3.56 7.924-7.952 7.924h-9.095c-9.369 0-16.974 7.463-17.048 16.691v8.897c0 4.377-3.56 7.925-7.952 7.925h-18.19c-4.392 0-7.952-3.548-7.952-7.925v-17.794c0-4.377 3.56-7.925 7.952-7.925h9.096c9.371 0 16.977-7.459 17.046-16.691v-9.028c0-4.377 3.561-7.925 7.952-7.925h18.191Z"/><path stroke="#fff" stroke-linejoin="round" stroke-opacity=".2" stroke-width="1.25" d="M156.048 97.624c4.392 0 7.952 3.548 7.952 7.925v17.926c0 4.376-3.56 7.924-7.952 7.924h-9.095c-9.369 0-16.974 7.463-17.048 16.691v8.897c0 4.377-3.56 7.925-7.952 7.925h-18.19c-4.392 0-7.952-3.548-7.952-7.925v-17.794c0-4.377 3.56-7.925 7.952-7.925h9.096c9.371 0 16.977-7.459 17.046-16.691v-9.028c0-4.377 3.561-7.925 7.952-7.925h18.191Z"/><path stroke="#3C3C3C" stroke-linejoin="round" stroke-width="1.25" d="M28.143 97.624c4.392 0 7.952 3.548 7.952 7.925v9.027c.07 9.232 7.676 16.691 17.048 16.691h9.094c4.392 0 7.952 3.548 7.952 7.924v17.795c0 4.377-3.56 7.925-7.951 7.925H44.046c-4.392 0-7.952-3.548-7.952-7.925v-8.897c-.074-9.228-7.678-16.691-17.047-16.691H9.952C5.56 131.398 2 127.85 2 123.473v-17.924c0-4.377 3.56-7.925 7.952-7.925h18.19Z"/><path stroke="#fff" stroke-linejoin="round" stroke-opacity=".2" stroke-width="1.25" d="M28.143 97.624c4.392 0 7.952 3.548 7.952 7.925v9.027c.07 9.232 7.676 16.691 17.048 16.691h9.094c4.392 0 7.952 3.548 7.952 7.924v17.795c0 4.377-3.56 7.925-7.951 7.925H44.046c-4.392 0-7.952-3.548-7.952-7.925v-8.897c-.074-9.228-7.678-16.691-17.047-16.691H9.952C5.56 131.398 2 127.85 2 123.473v-17.924c0-4.377 3.56-7.925 7.952-7.925h18.19Z"/><path stroke="#3C3C3C" stroke-linejoin="round" stroke-width="1.25" d="M121.953 4.998c4.392 0 7.952 3.548 7.952 7.925v8.897c.074 9.228 7.679 16.69 17.048 16.69h9.095c4.392 0 7.952 3.549 7.952 7.925v17.926c0 4.377-3.56 7.925-7.952 7.925h-18.191c-4.391 0-7.952-3.548-7.952-7.925v-9.029c-.069-9.231-7.675-16.69-17.046-16.69h-9.096c-4.392 0-7.952-3.548-7.952-7.925V12.923c0-4.377 3.56-7.925 7.952-7.925h18.19Z"/><path stroke="#fff" stroke-linejoin="round" stroke-opacity=".2" stroke-width="1.25" d="M121.953 4.998c4.392 0 7.952 3.548 7.952 7.925v8.897c.074 9.228 7.679 16.69 17.048 16.69h9.095c4.392 0 7.952 3.549 7.952 7.925v17.926c0 4.377-3.56 7.925-7.952 7.925h-18.191c-4.391 0-7.952-3.548-7.952-7.925v-9.029c-.069-9.231-7.675-16.69-17.046-16.69h-9.096c-4.392 0-7.952-3.548-7.952-7.925V12.923c0-4.377 3.56-7.925 7.952-7.925h18.19Z"/><path stroke="#3C3C3C" stroke-linejoin="round" stroke-width="1.25" d="M62.237 4.998c4.392 0 7.952 3.548 7.952 7.925v17.793c0 4.377-3.56 7.926-7.951 7.926h-9.095c-9.372 0-16.979 7.459-17.048 16.69v9.028c0 4.377-3.56 7.925-7.952 7.925H9.952C5.56 72.285 2 68.737 2 64.36V46.435c0-4.376 3.56-7.924 7.952-7.925h9.096c9.369 0 16.973-7.462 17.047-16.69v-8.897c0-4.377 3.56-7.925 7.952-7.925h18.19Z"/><path stroke="#fff" stroke-linejoin="round" stroke-opacity=".2" stroke-width="1.25" d="M62.237 4.998c4.392 0 7.952 3.548 7.952 7.925v17.793c0 4.377-3.56 7.926-7.951 7.926h-9.095c-9.372 0-16.979 7.459-17.048 16.69v9.028c0 4.377-3.56 7.925-7.952 7.925H9.952C5.56 72.285 2 68.737 2 64.36V46.435c0-4.376 3.56-7.924 7.952-7.925h9.096c9.369 0 16.973-7.462 17.047-16.69v-8.897c0-4.377 3.56-7.925 7.952-7.925h18.19Z"/><path stroke="#3C3C3C" stroke-dasharray="0 4" stroke-linecap="round" stroke-linejoin="round" stroke-width="1.25" d="M1 1h164v163.912H1z"/></svg>


